<?xml version="1.0" encoding="UTF-8"?><svg id="a" xmlns="http://www.w3.org/2000/svg" viewBox="0 0 144 144"><defs><style>.b{fill:#e1953e;}</style></defs><path class="b" d="M108,72c0,19.88-16.12,36-36,36s-36-16.12-36-36,16.12-36,36-36,36,16.12,36,36Zm-12.87,9.53c-1.14-4.64-3.33-8.98-7.2-11.6-6.08-4.12-9.89-9.45-12.37-16.28-1.8-4.95-6.13-7.7-11.25-8.95-4.82-1.18-9.4,1.02-11.56,5.48-4.01,8.27-1.36,18.17,6.5,22.87,4.41,2.63,6.93,5.92,7.69,11.17,1.21,8.34,7.13,12.97,15.58,13.07,9.69,.11,14.92-6.39,12.61-15.76Z"/></svg>