<?xml version="1.0" encoding="UTF-8"?><svg id="a" xmlns="http://www.w3.org/2000/svg" viewBox="0 0 144 144"><defs><style>.b{fill:#e1953e;}</style></defs><path class="b" d="M107.43,72c0,19.88-16.12,36-36,36s-36-16.12-36-36,16.12-36,36-36,36,16.12,36,36Zm-37.3,18.76c0,1.92-.01,3.84,0,5.76,0,1.05,.06,2.26,1.44,2.2,1.38-.06,1.28-1.32,1.3-2.34,.01-.68,0-1.36,0-2.03,0-8.02,.02-16.05-.01-24.07,0-1.73,.26-3.13,1.51-4.59,3.35-3.92,3.43-8.69,.22-12.74-1.29-1.64-1.89-3.19-1.75-5.21,.07-1.06,.3-2.53-1.42-2.49-1.45,.04-1.35,1.34-1.27,2.32,.18,2.13-.45,3.79-1.87,5.5-2.78,3.35-3.25,8.1-.54,11.31,2.43,2.87,2.41,5.84,2.4,9.08-.01,3.05,0,6.1,0,9.16,0,2.71,0,5.43,0,8.14Zm16.76-6.81c.31-2.28,.9-4.08,2.7-5.51,.82-.65,1.55-1.57,.57-2.57-1.07-1.09-1.92-.07-2.52,.67-1.53,1.89-3.41,2.52-5.83,2.8-4.68,.54-8.36,5.16-8.28,9.76,.04,2.44,1.13,3.55,3.52,3.56,4.65,.03,9.17-3.73,9.84-8.7Zm.02-14.93c.28-2.16,.82-3.85,2.5-5.22,.76-.62,1.76-1.52,.86-2.54-1.06-1.2-2.09-.21-2.82,.64-1.4,1.62-3.01,2.29-5.22,2.53-4.91,.53-8.69,5.03-8.71,9.73-.01,2.63,1.08,3.71,3.69,3.67,4.68-.08,9.04-3.8,9.69-8.81Zm-26.41-4.59c-2.21-.22-3.84-.86-5.22-2.51-.63-.76-1.54-1.75-2.54-.82-1.15,1.07-.16,2.11,.68,2.84,1.63,1.41,2.35,3.02,2.52,5.24,.33,4.19,3.8,7.57,8.1,8.49,3.45,.74,4.76-.3,4.85-3.81,.11-4.67-3.46-8.94-8.38-9.43Zm.47,14.9c-2.37-.32-4.36-.8-5.87-2.75-.54-.7-1.4-1.46-2.31-.7-1.11,.93-.38,1.92,.43,2.56,1.92,1.53,2.46,3.49,2.77,5.87,.56,4.4,4.64,7.89,9.09,8.33,2.71,.27,3.8-.74,3.84-3.54,.08-4.96-3.08-9.09-7.96-9.76Z"/></svg>