<?xml version="1.0" encoding="UTF-8"?><svg id="a" xmlns="http://www.w3.org/2000/svg" viewBox="0 0 144 144"><defs><style>.b{fill:#e1953e;}</style></defs><path class="b" d="M108,72c0,19.88-16.12,36-36,36s-36-16.12-36-36,16.12-36,36-36,36,16.12,36,36Zm-13.2,10.36c-.97-4.94-4.11-8.35-8.53-8.86-4.47-.51-7.13,2.15-9.02,5.79-.8,1.54-2,2.7-3.24,3.86-2.5,2.34-4.36,5.03-3.24,8.66,1.13,3.69,3.58,6.22,7.38,7.25,8.01,2.17,17.01-5.47,16.95-14.83-.05-.32-.15-1.11-.3-1.88Zm-12.92-35.34c-2.89,1.03-5.8,1.71-8.79,2.25-4.31,.78-6.61,3.36-6.84,7.6-.17,3.03,.67,5.78,2.86,8.04,6.8,7.06,20.04,3.92,23.4-5.58,.41-1.17,.8-2.36,.7-3.5,.03-6.61-5.42-10.93-11.32-8.82Zm-18.16,37.24c6.16-3.54,6.75-11.26,.98-15.03-2.47-1.62-4.71-3.4-6.83-5.44-3.59-3.45-7.74-3.36-11.5-.07-2.54,2.22-3.79,4.99-3.61,7.9,0,10.39,12.39,17.57,20.96,12.64Z"/></svg>