<?xml version="1.0" encoding="UTF-8"?><svg id="a" xmlns="http://www.w3.org/2000/svg" viewBox="0 0 360 360"><path d="M257.99,204.5c0,26.05,0,52.09,0,78.14,0,6.91-2.1,9.06-8.89,9.07-42.85,.01-85.71,.01-128.56,0-6.81,0-8.92-2.15-8.92-9.04,0-51.71,.02-103.41-.05-155.12,0-3.94,1.07-7.17,3.6-10.2,6.24-7.48,12.41-15.03,18.34-22.76,1.35-1.76,2.1-4.3,2.29-6.55,.36-4.2,.04-8.46,.13-12.69,.11-4.92,1.93-6.8,6.79-6.81,28.1-.04,56.2-.04,84.3,0,4.68,0,6.45,1.88,6.68,6.55,.02,.38,.07,.78,0,1.15-1.9,11.12,1.87,20.06,9.84,27.86,4.37,4.28,7.73,9.56,11.73,14.24,1.95,2.28,2.8,4.61,2.78,7.64-.1,26.17-.06,52.35-.06,78.52Zm-90.65-28.8v63.46h83.56v-63.46h-83.56Zm83.65-49.1h-83.73v41.72h83.73v-41.72Zm-83.76,158h83.71v-38.14h-83.71v38.14Zm-48.46-108.9v63.45h41.18v-63.45h-41.18Zm128.7-56.19c-6.43-7.95-12.16-15.14-18.08-22.16-.71-.84-2.49-1.09-3.78-1.1-25.28-.06-50.55-.05-75.83-.03-.92,0-1.84,.2-3.22,.35,5.67,7.01,11.05,13.53,16.26,20.19,1.57,2.01,3.24,2.82,5.82,2.81,23.99-.09,47.99-.06,71.98-.06,1.91,0,3.82,0,6.85,0Zm-87.52,48.99v-41.59h-41.19v41.59h41.19Zm.06,77.99h-41.26v38.12h41.26v-38.12Zm-17.4-170.93c0,3.67,.21,6.88-.06,10.05-.28,3.3,1.01,4.07,4.13,4.05,17.2-.13,34.39-.06,51.59-.06,8.47,0,16.94,.07,25.41-.09,1.11-.02,3.07-1.21,3.14-1.98,.32-3.91,.15-7.86,.15-11.96h-84.36Zm-20.6,44.12h34.58c-5.98-7.37-11.56-14.25-17.31-21.34-5.87,7.26-11.38,14.06-17.27,21.34Z"/><path d="M230.29,207.61c-.05,11.67-9.71,21.1-21.47,20.96-11.54-.13-20.89-9.62-20.88-21.18,0-11.68,9.61-21.23,21.3-21.18,11.65,.05,21.12,9.66,21.06,21.4Zm-21.33-14.53c-8.07,.07-14.33,6.43-14.26,14.5,.07,7.99,6.47,14.25,14.56,14.21,8.01-.04,14.32-6.46,14.26-14.51-.06-8.05-6.44-14.27-14.56-14.2Z"/></svg>