<?xml version="1.0" encoding="UTF-8"?><svg id="a" xmlns="http://www.w3.org/2000/svg" viewBox="0 0 360 360"><path d="M167.49,283.2c-18.69-.65-35.54-12.53-41.87-30.19-1.39-3.89-2.56-7.87-3.56-11.88-2.44-9.75-7.68-17.59-15.5-23.83-6.29-5.02-12.81-9.8-18.67-15.29-17.93-16.81-16.86-42.51,2.15-58.21,8.43-6.96,18.5-10.54,28.76-13.68,1.87-.57,3.8-.96,5.64-1.59,9.35-3.24,16.13-9.19,19.04-18.87,1.75-5.83,3.08-11.78,4.74-17.64,1.97-6.96,5.16-13.27,10.55-18.29,7.64-7.1,16.39-8.43,25.75-3.85,1.55,.76,3.15,1.5,4.49,2.54,11.99,9.35,25.94,12.74,40.74,14.26,7.6,.78,15.28,2.3,22.54,4.68,20.86,6.83,29.45,21.79,25.41,43.3-1.4,7.45-3.2,14.82-4.83,22.22-1.82,8.23-1.05,16.18,2.17,23.98,2.8,6.79,5.78,13.56,7.91,20.57,5.41,17.89-.39,31.45-17.17,39.81-5.91,2.94-12.31,5.3-18.75,6.69-13.88,3-26.19,9.08-37.8,16.95-8.65,5.87-17.19,12.05-27.33,15.16-4.68,1.43-9.59,2.13-14.4,3.15Zm104.52-153.68c.43-14.85-4.15-23.01-13.8-28.54-6.69-3.83-13.97-6.06-21.55-6.82-19.31-1.94-38.08-5.23-53.83-17.84-.87-.7-2.04-1.05-3.11-1.46-5.26-2.06-10.49-1.69-14.53,2.16-3.41,3.25-6.66,7.15-8.54,11.4-2.57,5.83-4.08,12.19-5.51,18.44-3.55,15.44-12.99,24.81-28.19,28.89-9.56,2.56-18.91,5.8-27.04,11.75-17.38,12.7-18.93,35.35-3.38,50.06,2.25,2.13,4.69,4.06,7.11,6.01,4.11,3.33,8.32,6.53,12.4,9.9,7.64,6.33,12.97,14.19,15.66,23.83,1.39,4.98,2.78,9.98,4.63,14.79,6.58,17.15,25.46,27.07,43.35,23.02,8.7-1.97,16.29-6.31,23.44-11.35,15.17-10.71,31.16-19.33,49.67-22.93,7.66-1.49,14.91-4.71,21.03-9.88,6.44-5.44,10.06-12.36,8.21-20.71-1.67-7.56-4.08-15.1-7.24-22.17-5.49-12.3-6.65-24.65-3.32-37.65,2.07-8.1,3.56-16.35,4.53-20.89Z"/><path d="M239.56,174.74c.03,26.05-20.85,47-46.85,47.01-25.76,.01-46.66-20.97-46.66-46.85,0-25.87,20.91-46.86,46.66-46.86,25.81,0,46.82,20.93,46.85,46.7Zm-46.74,40.42c22.31,0,40.35-18.07,40.31-40.36-.05-22.11-18.03-40.08-40.18-40.15-22.32-.07-40.46,17.93-40.48,40.19-.03,22.29,18.02,40.32,40.36,40.32Z"/><path d="M191.24,145.3c2.24-.13,4.38,.16,4.65,2.86,.3,2.93-1.82,3.58-4.23,3.72-7.87,.46-13.95,4.09-18.3,10.6-1.28,1.92-2.73,3.35-5.04,1.91-2.29-1.43-1.78-3.46-.5-5.37,5.57-8.39,13.44-12.86,23.41-13.73Z"/></svg>