<?xml version="1.0" encoding="UTF-8"?><svg id="a" xmlns="http://www.w3.org/2000/svg" viewBox="0 0 360 360"><path d="M103.21,270.21c-17.46-11.51-31.38-24.49-37.93-43.64-14.37-42.08,14.62-87.78,59.51-93.84,6.24-.84,12.59-1.45,18.87-1.25,12.49,.39,22.76-4.73,32.51-11.67,8-5.69,15.84-11.66,24.14-16.88,16.11-10.12,32.95-11.59,50.2-2.76,2.29,1.17,3.89,.94,5.8-.88,3.71-3.53,7.63-6.87,11.63-10.06,2.03-1.62,2.44-3.22,1.86-5.7-1.64-7.02,.28-13.16,5.67-17.93,5.56-4.92,12.1-5.87,18.93-3.17,6.38,2.52,9.75,7.61,11.18,14.24,.29,1.33,1.63,2.99,2.88,3.46,10.45,3.98,15.65,13.13,12.74,22.88-2.88,9.65-11.94,14.51-22.67,12.41-1.47-.29-3.57,.13-4.71,1.04-4.8,3.85-9.4,7.95-13.92,12.13-.91,.84-1.89,2.56-1.64,3.58,3.5,14.6,.48,28.7-3.75,42.47-9.17,29.88-23.71,56.88-45.66,79.43-29.74,30.54-78.89,38.86-117.28,20.15-3.16-1.54-6.35-3.05-8.37-4.02Zm39.37-132.31c2.4,5.31,4.76,10.45,7.03,15.63,.77,1.75,1.34,3.58,1.94,5.39,4.07,12.37,11.3,22.41,21.74,30.24,7.04,5.28,6.73,11.19-.58,16.25-1.2,.83-2.45,1.64-3.78,2.23-8.66,3.85-17.73,5.38-27.11,3.91-11.36-1.78-19.08-7.72-21.61-19.51-1.53-7.11-5.73-12.44-12.02-16.1-8.54-4.96-17.94-6.23-27.58-6.13-1.21,.01-3.01,1.4-3.49,2.58-2.77,6.75-6.27,13.43-7.6,20.49-5.24,27.85,6.44,49.21,28.12,65.29,26.97,20.02,57.04,24.48,89.03,14.19,22.72-7.31,39.91-22.03,52.99-41.65,5.58-8.36,10.49-17.16,16.13-26.44-2.38,.13-3.8,.2-5.21,.29-13.78,.85-27.3-.5-40.3-5.32-8.45-3.14-15.69-7.8-17.01-17.77-1.24-9.37,2.06-17.16,9.55-22.79,9.06-6.81,18.39-5.05,27.73-.13,12.77,6.73,25.67,6.57,38.37-.18,1.52-.81,3.04-2.91,3.31-4.6,2.68-16.73-1.15-31.6-15.12-42.01-15.02-11.19-31.64-15.01-49.08-5.43-7.42,4.08-14.4,9.05-21.25,14.06-13.42,9.81-26.88,19.28-44.19,17.52Zm-59.77,24.76c3.11,.4,4.68,.61,6.24,.8,19.06,2.26,33.97,9.47,38.81,30.33,.82,3.52,4.7,7.51,8.16,9.01,11.2,4.88,22.36,3.09,32.89-2.81,2.69-1.51,3.6-3.21,.4-5.55-12.54-9.15-20.48-21.51-25.12-36.21-1.36-4.31-3-8.65-5.3-12.51-2.95-4.95-7.32-7.57-13.65-6.45-10.74,1.9-20.7,5.57-29.44,12.09-4.26,3.17-8.05,6.97-12.99,11.3Zm188.15,2.8c-20.06,6.24-27.58,6.03-43.22-.74-2.42-1.05-4.74-2.42-7.25-3.15-8.12-2.35-16.57,1.92-19.39,9.58-3.31,8.96-.9,16.51,7.09,20.06,15.29,6.79,31.37,8.26,47.84,5.98,1.31-.18,3.23-.95,3.63-1.94,3.81-9.58,7.36-19.26,11.31-29.79Zm5.05-42.45c4.11-3.52,8.71-7.15,12.93-11.17,3.45-3.28,6.99-4.14,11.61-2.91,7.1,1.89,13.72-2.61,14.66-9.46,.95-6.94-4.14-13.01-11.45-13.1-4.14-.05-5.47-1.49-4.94-5.58,.67-5.12-1.36-9.12-6.03-11.66-4.19-2.27-8.27-1.86-12,.78-4.1,2.9-5.86,7.17-4.5,11.96,1.63,5.74-.58,9.6-4.73,13.05-3.88,3.23-7.65,6.6-11.03,9.53,5.29,6.34,10.21,12.23,15.49,18.55Z"/><path d="M223.24,116.07c-1.07,.68-1.74,1.32-2.53,1.57-12.35,3.78-22.05,11.96-32.27,19.29-.83,.6-1.63,1.64-2.5,1.7-1.43,.11-3.47,.07-4.19-.79-.66-.79-.49-3.5,.29-4.09,11.25-8.65,22.19-17.89,36.13-22.1,1.32-.4,3.27,.46,4.6,1.28,.59,.36,.35,2.07,.48,3.14Z"/></svg>